# xmcd
#
# Track frame offsets:
# 150
# 11680
# 18653
# 25405
# 30513
# 38879
# 45835
# 54807
# 67395
# 81182
# 102516
# 116599
# 123580
# 136160
# 143915
# 157183
# 165122
# 170943
# 180152
# 189784
# 197572
# 201579
# 208027
# 217296
# 230809
# 239818
# 256882
# 267527
#
# Disc length: 3780 seconds
#
#
# Revision: 0
# Processed by: cddbd v1.5.1PL0 Copyright (c) Steve Scherf et al.
# Submitted via: FreeRIP 2.941 
#
DISCID=a10ec21c
DTITLE=Ben and Brian - What Were They Thinking?
DYEAR=2003
DGENRE=Country
TTITLE0=White House Front Porch Lookin' In
TTITLE1=Ari Fleischer Calls
TTITLE2=Give me Caffeine
TTITLE3=Barking for Dollars - Kathy and Bear
TTITLE4=Kevin Pollack
TTITLE5=Dr. Phil's Country Music Therapy - Joe Nichols
TTITLE6=Real World Nashville-The Flood
TTITLE7=Jamie Kennedy's Cryin'
TTITLE8=Stump the bad - With Lonestar
TTITLE9=Lonestar - Walkin' in Memphis
TTITLE10=Pablo Francisco
TTITLE11=Livin' Hell
TTITLE12=Stars on Parade
TTITLE13=Dr. Phill's Country Music Therapy - Terri Clark
TTITLE14=Real World Nashville - Ronnie Can't Cook
TTITLE15=Who's the Daddy
TTITLE16=George Lopez
TTITLE17=Kenny' Halloween Song
TTITLE18=National Convenience Store Day
TTITLE19=Barking for Dollars - Ge Bin Laden
TTITLE20=Darrell Hammond
TTITLE21=The Stars Song
TTITLE22=Dr. Phil's Country Music Therapy - Randy Travis
TTITLE23=Real World Nashville - The Naked Truth
TTITLE24=Running for Governor
TTITLE25="Macbo Man" Randy Savage
TTITLE26=My Spot
TTITLE27=Ben and Brian's 12 Days of Christmas
EXTD=
EXTT0=
EXTT1=
EXTT2=
EXTT3=
EXTT4=
EXTT5=
EXTT6=
EXTT7=
EXTT8=
EXTT9=
EXTT10=
EXTT11=
EXTT12=
EXTT13=
EXTT14=
EXTT15=
EXTT16=
EXTT17=
EXTT18=
EXTT19=
EXTT20=
EXTT21=
EXTT22=
EXTT23=
EXTT24=
EXTT25=
EXTT26=
EXTT27=
PLAYORDER=
